<svg width="24" height="24" viewBox="0 0 24 24" fill="none" xmlns="http://www.w3.org/2000/svg">
<mask id="mask0_222_972" style="mask-type:alpha" maskUnits="userSpaceOnUse" x="0" y="0" width="24" height="24">
<rect width="24" height="24" fill="#D9D9D9"/>
</mask>
<g mask="url(#mask0_222_972)">
<path d="M17.3749 12.6L14.3999 9.62505L15.6749 8.35005L17.3749 10.05L21.1999 6.25005L22.4749 7.50005L17.3749 12.6ZM9.5999 12C8.5999 12 7.7499 11.65 7.0499 10.95C6.3499 10.25 5.9999 9.40005 5.9999 8.40005C5.9999 7.40005 6.3499 6.55005 7.0499 5.85005C7.7499 5.15005 8.5999 4.80005 9.5999 4.80005C10.5999 4.80005 11.4499 5.15005 12.1499 5.85005C12.8499 6.55005 13.1999 7.40005 13.1999 8.40005C13.1999 9.40005 12.8499 10.25 12.1499 10.95C11.4499 11.65 10.5999 12 9.5999 12ZM2.3999 19.2V16.9C2.3999 16.4667 2.50407 16.0709 2.7124 15.7125C2.92074 15.3542 3.20824 15.0667 3.5749 14.85C4.49157 14.3167 5.45824 13.9084 6.4749 13.625C7.49157 13.3417 8.53324 13.2 9.5999 13.2C10.6666 13.2 11.7082 13.3417 12.7249 13.625C13.7416 13.9084 14.7082 14.3167 15.6249 14.85C15.9916 15.0667 16.2791 15.3542 16.4874 15.7125C16.6957 16.0709 16.7999 16.4667 16.7999 16.9V19.2H2.3999Z" fill="#828282"/>
</g>
</svg>
