<svg width="24" height="24" viewBox="0 0 24 24" fill="none" xmlns="http://www.w3.org/2000/svg">
<mask id="mask0_222_948" style="mask-type:alpha" maskUnits="userSpaceOnUse" x="0" y="0" width="24" height="24">
<rect width="24" height="24" fill="#D9D9D9"/>
</mask>
<g mask="url(#mask0_222_948)">
<path d="M10.8 21.0001L8.09995 18.6001C6.78328 17.4334 5.68328 16.4043 4.79995 15.5126C3.91662 14.6209 3.20828 13.8043 2.67495 13.0626C2.14162 12.3209 1.76245 11.6168 1.53745 10.9501C1.31245 10.2834 1.19995 9.59176 1.19995 8.8751C1.19995 7.39176 1.70828 6.14176 2.72495 5.1251C3.74162 4.10843 4.99162 3.6001 6.47495 3.6001C7.29162 3.6001 8.08328 3.7751 8.84995 4.1251C9.61662 4.4751 10.2666 4.96676 10.8 5.6001C11.3333 4.96676 11.9833 4.4751 12.75 4.1251C13.5166 3.7751 14.3083 3.6001 15.125 3.6001C16.425 3.6001 17.5583 4.00426 18.525 4.8126C19.4916 5.62093 20.0916 6.6501 20.325 7.9001C20.125 7.86676 19.9333 7.84176 19.75 7.8251C19.5666 7.80843 19.3916 7.8001 19.225 7.8001C17.7083 7.8001 16.425 8.32093 15.375 9.3626C14.325 10.4043 13.8 11.6834 13.8 13.2001C13.8 13.8334 13.9333 14.5084 14.2 15.2251C14.4666 15.9418 14.8333 16.5168 15.3 16.9501C15 17.2334 14.4666 17.7168 13.7 18.4001C12.9333 19.0834 12.3666 19.5918 12 19.9251L10.8 21.0001ZM18.35 16.1751L15.375 13.2001L16.65 11.9251L18.35 13.6251L21.75 10.2251L23.025 11.5001L18.35 16.1751Z" fill="#828282"/>
</g>
</svg>
