<svg width="24" height="24" viewBox="0 0 24 24" fill="none" xmlns="http://www.w3.org/2000/svg">
<mask id="mask0_222_945" style="mask-type:alpha" maskUnits="userSpaceOnUse" x="0" y="0" width="24" height="24">
<rect width="24" height="24" fill="#D9D9D9"/>
</mask>
<g mask="url(#mask0_222_945)">
<path d="M10.8 20.4L8.09995 18C6.78328 16.8333 5.68328 15.8 4.79995 14.9C3.91662 14 3.20828 13.175 2.67495 12.425C2.14162 11.675 1.76245 10.9708 1.53745 10.3125C1.31245 9.65417 1.19995 8.975 1.19995 8.275C1.19995 6.79167 1.70412 5.54167 2.71245 4.525C3.72078 3.50833 4.95828 3 6.42495 3C7.25829 3 8.06245 3.175 8.83745 3.525C9.61245 3.875 10.2666 4.36667 10.8 5C11.3383 4.36508 11.9795 3.87302 12.7237 3.5238C13.4679 3.1746 14.2516 3 15.075 3C16.375 3 17.5125 3.39583 18.4875 4.1875C19.4625 4.97917 20.0666 5.98333 20.3 7.2H18.425C18.1916 6.5 17.775 5.925 17.175 5.475C16.575 5.025 15.875 4.8 15.075 4.8C14.125 4.8 13.3958 5.0375 12.8875 5.5125C12.3791 5.9875 11.85 6.55 11.3 7.2H10.3C9.73329 6.53333 9.18745 5.96667 8.66245 5.5C8.13745 5.03333 7.39162 4.8 6.42495 4.8C5.47495 4.8 4.66662 5.13333 3.99995 5.8C3.33328 6.46667 2.99995 7.29167 2.99995 8.275C2.99995 8.79777 3.10412 9.32846 3.31245 9.86707C3.52078 10.4057 3.91245 11.0375 4.48745 11.7625C5.06245 12.4875 5.85412 13.3458 6.86245 14.3375C7.87078 15.3292 9.18328 16.5417 10.8 17.975C11.2166 17.6083 11.8291 17.0667 12.6375 16.35C13.4458 15.6333 14.0166 15.1167 14.35 14.8L15.625 16.075C15.275 16.4083 14.8916 16.7583 14.475 17.125C14.0583 17.4917 13.7166 17.7917 13.45 18.025L10.8 20.4ZM18.3 16.2V13.5H15.6V11.7H18.3V9H20.1V11.7H22.8V13.5H20.1V16.2H18.3Z" fill="#828282"/>
</g>
</svg>
