<svg width="24" height="24" viewBox="0 0 24 24" fill="none" xmlns="http://www.w3.org/2000/svg">
<mask id="mask0_222_969" style="mask-type:alpha" maskUnits="userSpaceOnUse" x="0" y="0" width="24" height="24">
<rect width="24" height="24" fill="#D9D9D9"/>
</mask>
<g mask="url(#mask0_222_969)">
<path d="M17.6999 13.2V11.1H15.5999V9.30005H17.6999V7.20005H19.4999V9.30005H21.5999V11.1H19.4999V13.2H17.6999ZM9.5999 12C8.5999 12 7.7499 11.65 7.0499 10.95C6.3499 10.25 5.9999 9.40005 5.9999 8.40005C5.9999 7.40005 6.3499 6.55005 7.0499 5.85005C7.7499 5.15005 8.5999 4.80005 9.5999 4.80005C10.5999 4.80005 11.4499 5.15005 12.1499 5.85005C12.8499 6.55005 13.1999 7.40005 13.1999 8.40005C13.1999 9.40005 12.8499 10.25 12.1499 10.95C11.4499 11.65 10.5999 12 9.5999 12ZM2.3999 19.2V16.9C2.3999 16.4704 2.50407 16.0755 2.7124 15.7153C2.92074 15.3551 3.20824 15.0667 3.5749 14.85C4.49157 14.3167 5.45824 13.9084 6.4749 13.625C7.49157 13.3417 8.53324 13.2 9.5999 13.2C10.6666 13.2 11.7082 13.3417 12.7249 13.625C13.7416 13.9084 14.7082 14.3167 15.6249 14.85C15.9916 15.0667 16.2791 15.3551 16.4874 15.7153C16.6957 16.0755 16.7999 16.4704 16.7999 16.9V19.2H2.3999ZM4.1999 17.4H14.9999V16.9C14.9999 16.7922 14.9747 16.6942 14.9243 16.6059C14.8739 16.5177 14.8074 16.4491 14.7249 16.4C13.9416 15.95 13.1166 15.6042 12.2499 15.3625C11.3832 15.1209 10.4999 15 9.5999 15C8.6999 15 7.81657 15.1209 6.9499 15.3625C6.08324 15.6042 5.25824 15.95 4.4749 16.4C4.3924 16.4491 4.32594 16.5177 4.27553 16.6059C4.22511 16.6942 4.1999 16.7922 4.1999 16.9V17.4ZM9.6052 10.2C10.1017 10.2 10.5249 10.0233 10.8749 9.66975C11.2249 9.3162 11.3999 8.8912 11.3999 8.39475C11.3999 7.89828 11.2231 7.47505 10.8696 7.12505C10.5161 6.77505 10.0911 6.60005 9.5946 6.60005C9.09814 6.60005 8.6749 6.77681 8.3249 7.13035C7.9749 7.4839 7.7999 7.9089 7.7999 8.40535C7.7999 8.90181 7.97667 9.32505 8.3302 9.67505C8.68375 10.025 9.10875 10.2 9.6052 10.2Z" fill="#828282"/>
</g>
</svg>
