<svg width="24" height="24" viewBox="0 0 24 24" fill="none" xmlns="http://www.w3.org/2000/svg">
<mask id="mask0_222_963" style="mask-type:alpha" maskUnits="userSpaceOnUse" x="0" y="0" width="24" height="24">
<rect width="24" height="24" fill="#D9D9D9"/>
</mask>
<g mask="url(#mask0_222_963)">
<path d="M17.55 9.0001L15 6.4501L16.275 5.1751L17.55 6.4501L20.525 3.4751L21.8 4.7501L17.55 9.0001ZM6 20.4001V5.4001C6 4.91676 6.175 4.49593 6.525 4.1376C6.875 3.77926 7.3 3.6001 7.8 3.6001H13.85C13.6333 3.98343 13.4708 4.3751 13.3625 4.7751C13.2542 5.1751 13.2 5.58343 13.2 6.0001C13.2 7.0001 13.4708 7.9001 14.0125 8.7001C14.5542 9.5001 15.2833 10.0834 16.2 10.4501C16.4833 10.5834 16.775 10.6751 17.075 10.7251C17.375 10.7751 17.6833 10.8001 18 10.8001V20.4001L12 18.0001L6 20.4001Z" fill="#828282"/>
</g>
</svg>
