<svg width="24" height="24" viewBox="0 0 24 24" fill="none" xmlns="http://www.w3.org/2000/svg">
<g clip-path="url(#clip0_222_861)">
<mask id="mask0_222_861" style="mask-type:alpha" maskUnits="userSpaceOnUse" x="0" y="0" width="24" height="24">
<rect width="24" height="24" fill="#D9D9D9"/>
</mask>
<g mask="url(#mask0_222_861)">
<path d="M1.19995 21.5999L3.22495 14.7C2.95828 14.1 2.75412 13.475 2.61245 12.825C2.47078 12.175 2.39995 11.5 2.39995 10.8C2.39995 9.46662 2.64995 8.22078 3.14995 7.06245C3.64995 5.90412 4.33745 4.88745 5.21245 4.01245C6.08745 3.13745 7.10793 2.44995 8.2739 1.94995C9.43988 1.44995 10.6857 1.19995 12.0114 1.19995C13.3371 1.19995 14.5791 1.44995 15.7375 1.94995C16.8958 2.44995 17.9125 3.13745 18.7875 4.01245C19.6625 4.88745 20.35 5.90598 20.85 7.06805C21.3499 8.23013 21.5999 9.4718 21.5999 10.7931C21.5999 12.1143 21.3499 13.3583 20.85 14.525C20.35 15.6916 19.6625 16.7125 18.7875 17.5875C17.9125 18.4625 16.8958 19.15 15.7375 19.65C14.5791 20.15 13.3333 20.4 12 20.4C11.3 20.4 10.625 20.3291 9.97495 20.1875C9.32495 20.0458 8.69995 19.8416 8.09995 19.575L1.19995 21.5999ZM3.87495 18.925L8.22495 17.65C8.40828 17.7333 8.83328 17.9125 9.49995 18.1875C10.1666 18.4625 11 18.6 12 18.6C14.1666 18.6 16.0083 17.8416 17.525 16.325C19.0416 14.8083 19.8 12.9666 19.8 10.8C19.8 8.63328 19.0416 6.79162 17.525 5.27495C16.0083 3.75828 14.1666 2.99995 12 2.99995C9.83328 2.99995 7.99162 3.75828 6.47495 5.27495C4.95828 6.79162 4.19995 8.63328 4.19995 10.8C4.19995 11.8 4.33328 12.6291 4.59995 13.2875C4.86662 13.9458 5.04995 14.375 5.14995 14.575L3.87495 18.925ZM11.1 14.4H12.9V11.7H15.6V9.89995H12.9V7.19995H11.1V9.89995H8.39995V11.7H11.1V14.4Z" fill="#828282"/>
</g>
</g>
<defs>
<clipPath id="clip0_222_861">
<rect width="24" height="24" fill="white"/>
</clipPath>
</defs>
</svg>
