<svg width="50" height="50" viewBox="0 0 50 50" fill="none" xmlns="http://www.w3.org/2000/svg">
<mask id="mask0_146_1176" style="mask-type:alpha" maskUnits="userSpaceOnUse" x="0" y="0" width="50" height="50">
<rect width="50" height="50" fill="#D9D9D9"/>
</mask>
<g mask="url(#mask0_146_1176)">
<path d="M27.0834 29.1665H31.2501V22.9165H37.5001V18.7498H31.2501V12.4998H27.0834V18.7498H20.8334V22.9165H27.0834V29.1665ZM16.6667 37.4998C15.5209 37.4998 14.54 37.0919 13.724 36.2759C12.9081 35.4599 12.5001 34.479 12.5001 33.3332V8.33317C12.5001 7.18734 12.9081 6.20643 13.724 5.39046C14.54 4.57449 15.5209 4.1665 16.6667 4.1665H41.6667C42.8126 4.1665 43.7935 4.57449 44.6095 5.39046C45.4254 6.20643 45.8334 7.18734 45.8334 8.33317V33.3332C45.8334 34.479 45.4254 35.4599 44.6095 36.2759C43.7935 37.0919 42.8126 37.4998 41.6667 37.4998H16.6667ZM16.6667 33.3332H41.6667V8.33317H16.6667V33.3332ZM8.33341 45.8332C7.18758 45.8332 6.20668 45.4252 5.39071 44.6092C4.57473 43.7932 4.16675 42.8123 4.16675 41.6665V12.4998H8.33341V41.6665H37.5001V45.8332H8.33341Z" fill="#484848"/>
</g>
</svg>
