<svg width="24" height="24" viewBox="0 0 24 24" fill="none" xmlns="http://www.w3.org/2000/svg">
<mask id="mask0_222_898" style="mask-type:alpha" maskUnits="userSpaceOnUse" x="0" y="0" width="24" height="24">
<rect width="24" height="24" fill="#D9D9D9"/>
</mask>
<g mask="url(#mask0_222_898)">
<path d="M4.80005 19.2V16.8C4.80005 16.4167 4.90422 16.0542 5.11255 15.7125C5.32088 15.3709 5.60838 15.0834 5.97505 14.85C6.89172 14.3167 7.86139 13.9084 8.88407 13.625C9.90676 13.3417 10.9454 13.2 12 13.2C12.628 13.2 13.2475 13.25 13.8585 13.35C14.4695 13.45 15.0667 13.5917 15.65 13.775L14.2 15.225C13.8334 15.1417 13.4699 15.0834 13.1095 15.05C12.7492 15.0167 12.3794 15 12 15C11.0834 15 10.1917 15.1167 9.32505 15.35C8.45838 15.5834 7.64172 15.9334 6.87505 16.4C6.79172 16.4667 6.72505 16.5311 6.67505 16.5931C6.62505 16.6552 6.60005 16.7242 6.60005 16.8V17.4H12.6V19.2H4.80005ZM14.4 20.4V17.5751L19.65 12.35C19.771 12.2265 19.9054 12.1373 20.0533 12.0824C20.2011 12.0275 20.348 12 20.494 12C20.6533 12 20.8059 12.0292 20.9519 12.0875C21.0979 12.1459 21.2306 12.2334 21.35 12.35L22.4501 13.475C22.5599 13.596 22.6456 13.7304 22.7074 13.8783C22.7692 14.0261 22.8 14.173 22.8 14.319C22.8 14.465 22.7726 14.6143 22.7177 14.7669C22.6628 14.9196 22.5736 15.0556 22.4501 15.175L17.225 20.4H14.4ZM15.6 19.2H16.725L19.6 16.325L19.05 15.75L18.5 15.2L15.6 18.075V19.2ZM19.05 15.75L18.5 15.2L19.6 16.325L19.05 15.75ZM12 12C11 12 10.15 11.65 9.45005 10.95C8.75005 10.25 8.40005 9.40005 8.40005 8.40005C8.40005 7.40005 8.75005 6.55005 9.45005 5.85005C10.15 5.15005 11 4.80005 12 4.80005C13 4.80005 13.85 5.15005 14.55 5.85005C15.25 6.55005 15.6 7.40005 15.6 8.40005C15.6 9.40005 15.25 10.25 14.55 10.95C13.85 11.65 13 12 12 12ZM12.0053 10.2C12.5018 10.2 12.925 10.0233 13.275 9.66975C13.625 9.3162 13.8 8.8912 13.8 8.39475C13.8 7.89828 13.6233 7.47505 13.2697 7.12505C12.9162 6.77505 12.4912 6.60005 11.9947 6.60005C11.4983 6.60005 11.075 6.77682 10.725 7.13035C10.375 7.4839 10.2 7.9089 10.2 8.40535C10.2 8.90181 10.3768 9.32505 10.7303 9.67505C11.0839 10.025 11.5089 10.2 12.0053 10.2Z" fill="#828282"/>
</g>
</svg>
