<svg width="24" height="24" viewBox="0 0 24 24" fill="none" xmlns="http://www.w3.org/2000/svg">
<mask id="mask0_74_2637" style="mask-type:alpha" maskUnits="userSpaceOnUse" x="0" y="0" width="24" height="24">
<rect width="24" height="24" fill="#D9D9D9"/>
</mask>
<g mask="url(#mask0_74_2637)">
<path d="M19.125 20.4001L13.15 14.4251C12.65 14.7918 12.1017 15.0793 11.5052 15.2876C10.9086 15.4959 10.2739 15.6001 9.60085 15.6001C7.9336 15.6001 6.51664 15.0168 5.34998 13.8501C4.18331 12.6834 3.59998 11.2668 3.59998 9.6001C3.59998 7.93343 4.18331 6.51676 5.34998 5.3501C6.51664 4.18343 7.93331 3.6001 9.59998 3.6001C11.2666 3.6001 12.6833 4.18343 13.85 5.3501C15.0166 6.51676 15.6 7.93372 15.6 9.60097C15.6 10.274 15.4958 10.9088 15.2875 11.5053C15.0791 12.1018 14.7916 12.6501 14.425 13.1501L20.4 19.1251L19.125 20.4001ZM9.59998 13.8001C10.7666 13.8001 11.7583 13.3918 12.575 12.5751C13.3916 11.7584 13.8 10.7668 13.8 9.6001C13.8 8.43343 13.3916 7.44176 12.575 6.6251C11.7583 5.80843 10.7666 5.4001 9.59998 5.4001C8.43331 5.4001 7.44164 5.80843 6.62498 6.6251C5.80831 7.44176 5.39998 8.43343 5.39998 9.6001C5.39998 10.7668 5.80831 11.7584 6.62498 12.5751C7.44164 13.3918 8.43331 13.8001 9.59998 13.8001Z" fill="#828282"/>
</g>
</svg>
