<svg width="40" height="40" viewBox="0 0 40 40" fill="none" xmlns="http://www.w3.org/2000/svg">
<mask id="mask0_99_636" style="mask-type:alpha" maskUnits="userSpaceOnUse" x="0" y="0" width="40" height="40">
<rect width="40" height="40" fill="#D9D9D9"/>
</mask>
<g mask="url(#mask0_99_636)">
<path d="M18.6111 8.0555V1.66663H21.3889V8.0555H18.6111ZM29.4167 12.5277L27.4861 10.5972L31.9861 6.02775L33.9306 8.01383L29.4167 12.5277ZM31.9445 21.3888V18.6111H38.3334V21.3888H31.9445ZM18.6111 38.3333V31.9444H21.3889V38.3333H18.6111ZM10.5556 12.4722L6.05556 8.01383L8.0139 6.06942L12.5278 10.5833L10.5556 12.4722ZM32 33.9444L27.4861 29.4028L29.375 27.5139L33.9584 31.9305L32 33.9444ZM1.66669 21.3888V18.6111H8.05556V21.3888H1.66669ZM8.04169 33.9444L6.06948 31.9861L10.5417 27.5139L11.5556 28.4444L12.5694 29.4166L8.04169 33.9444ZM20 30C17.2222 30 14.8611 29.0277 12.9167 27.0833C10.9722 25.1388 10 22.7777 10 20C10 17.2222 10.9722 14.8611 12.9167 12.9166C14.8611 10.9722 17.2222 9.99996 20 9.99996C22.7778 9.99996 25.1389 10.9722 27.0834 12.9166C29.0278 14.8611 30 17.2222 30 20C30 22.7777 29.0278 25.1388 27.0834 27.0833C25.1389 29.0277 22.7778 30 20 30ZM20 27.2222C22 27.2222 23.7037 26.5185 25.1111 25.1111C26.5186 23.7037 27.2223 22 27.2223 20C27.2223 18 26.5186 16.2963 25.1111 14.8888C23.7037 13.4814 22 12.7777 20 12.7777C18 12.7777 16.2963 13.4814 14.8889 14.8888C13.4815 16.2963 12.7778 18 12.7778 20C12.7778 22 13.4815 23.7037 14.8889 25.1111C16.2963 26.5185 18 27.2222 20 27.2222Z" fill="#484848"/>
</g>
</svg>
