<svg width="40" height="40" viewBox="0 0 40 40" fill="none" xmlns="http://www.w3.org/2000/svg">
<mask id="mask0_99_642" style="mask-type:alpha" maskUnits="userSpaceOnUse" x="0" y="0" width="40" height="40">
<rect width="40" height="40" fill="#D9D9D9"/>
</mask>
<g mask="url(#mask0_99_642)">
<path d="M20.125 31.4445C20.5324 31.4352 20.8542 31.3403 21.0903 31.1598C21.3264 30.9792 21.4444 30.7315 21.4444 30.4167C21.4444 30.0834 21.3241 29.8218 21.0833 29.632C20.8426 29.4422 20.5 29.3519 20.0555 29.3612C18.8981 29.3889 17.7037 29.0394 16.4722 28.3125C15.2407 27.5857 14.4583 26.2917 14.125 24.4306C14.0694 24.1621 13.9375 23.9445 13.7292 23.7778C13.5208 23.6112 13.2917 23.5278 13.0417 23.5278C12.7083 23.5278 12.4444 23.6551 12.25 23.9098C12.0555 24.1644 11.9907 24.4399 12.0555 24.7362C12.4907 27.1343 13.5185 28.8612 15.1389 29.9167C16.7593 30.9723 18.4213 31.4815 20.125 31.4445ZM20 36.6667C16.1944 36.6667 13.0208 35.3612 10.4792 32.75C7.93749 30.1389 6.66666 26.8889 6.66666 23C6.66666 20.2223 7.77082 17.2014 9.97916 13.9375C12.1875 10.6737 15.5278 7.13893 20 3.33337C24.4722 7.13893 27.8125 10.6737 30.0208 13.9375C32.2292 17.2014 33.3333 20.2223 33.3333 23C33.3333 26.8889 32.0625 30.1389 29.5208 32.75C26.9792 35.3612 23.8055 36.6667 20 36.6667ZM20 33.889C23.037 33.889 25.5555 32.8542 27.5556 30.7848C29.5556 28.7153 30.5556 26.1204 30.5556 23C30.5556 20.8612 29.6597 18.4352 27.8681 15.7223C26.0764 13.0093 23.4537 10.1111 20 7.02779C16.5463 10.1111 13.9236 13.0093 12.1319 15.7223C10.3402 18.4352 9.44441 20.8612 9.44441 23C9.44441 26.1204 10.4444 28.7153 12.4444 30.7848C14.4444 32.8542 16.963 33.889 20 33.889Z" fill="#484848"/>
</g>
</svg>
